<svg width="40" height="78" viewBox="0 0 40 78" fill="none" xmlns="http://www.w3.org/2000/svg">
<path fill-rule="evenodd" clip-rule="evenodd" d="M16.7936 77.478L23.3441 61.535L39.1585 54.9307L32.608 38.9876L39.1585 23.0435L23.3441 16.4391L16.7936 0.496109L0.107422 7.46452V38.6235L0.107472 39.2375L0.107422 39.8666V70.5096L16.7936 77.478ZM1.85111 36.8655V8.63918L15.85 2.79303L21.6485 16.9057L1.85111 36.8655ZM22.8814 18.1488L36.8803 23.9949L31.0817 38.1086H3.08408L22.8814 18.1488ZM3.08519 39.8666H31.0818L36.8802 53.9793L22.8814 59.8254L3.08519 39.8666ZM21.6485 61.0685L15.85 75.1811L1.85111 69.335V41.1086L21.6485 61.0685Z" fill="#243054"/>
<path d="M27.3175 28.7677C27.3175 30.1201 26.2291 31.2163 24.8877 31.2163C23.5473 31.2163 22.459 30.1201 22.459 28.7677C22.459 27.4152 23.5473 26.319 24.8877 26.319C26.2291 26.319 27.3175 27.4152 27.3175 28.7677Z" fill="#243054"/>
<path d="M13.5508 14.0752C13.5508 15.4276 12.4635 16.5249 11.1221 16.5249C9.78061 16.5249 8.69336 15.4276 8.69336 14.0752C8.69336 12.7227 9.78061 11.6265 11.1221 11.6265C12.4635 11.6265 13.5508 12.7227 13.5508 14.0752Z" fill="#243054"/>
<path d="M13.5508 62.3517C13.5508 63.7041 12.4635 64.8003 11.1221 64.8003C9.78061 64.8003 8.69336 63.7041 8.69336 62.3517C8.69336 60.9992 9.78061 59.903 11.1221 59.903C12.4635 59.903 13.5508 60.9992 13.5508 62.3517Z" fill="#243054"/>
<path d="M27.3175 48.3575C27.3175 49.71 26.2291 50.8062 24.8877 50.8062C23.5473 50.8062 22.459 49.71 22.459 48.3575C22.459 47.0051 23.5473 45.9089 24.8877 45.9089C26.2291 45.9089 27.3175 47.0051 27.3175 48.3575Z" fill="#243054"/>
</svg>
